<?xml version="1.0" encoding="UTF-8"?>
<!DOCTYPE svg PUBLIC "-//W3C//DTD SVG 1.1//EN" "http://www.w3.org/Graphics/SVG/1.1/DTD/svg11.dtd">
<svg xmlns="http://www.w3.org/2000/svg" version="1.1" width="64px" height="64px" style="shape-rendering:geometricPrecision; text-rendering:geometricPrecision; image-rendering:optimizeQuality; fill-rule:evenodd; clip-rule:evenodd" xmlns:xlink="http://www.w3.org/1999/xlink">
<g><path style="opacity:0.646" fill="#000000" d="M 7.5,2.5 C 9.83333,2.5 12.1667,2.5 14.5,2.5C 14.5,5.83333 14.5,9.16667 14.5,12.5C 27.8375,12.3334 41.1708,12.5001 54.5,13C 55.9308,13.4652 57.0975,14.2986 58,15.5C 59.6038,27.4286 59.9371,39.4286 59,51.5C 57.4543,56.6164 53.9543,58.9498 48.5,58.5C 48.5,54.8333 48.5,51.1667 48.5,47.5C 47.1779,47.33 46.0113,47.6634 45,48.5C 46.4104,51.9401 45.5771,54.7734 42.5,57C 40.8876,57.7203 39.3876,57.5536 38,56.5C 36.2942,57.3079 35.4609,58.6412 35.5,60.5C 32.8333,60.5 30.1667,60.5 27.5,60.5C 27.5391,58.6412 26.7058,57.3079 25,56.5C 22.1192,58.0283 19.7859,57.3616 18,54.5C 18.3187,52.2571 18.152,50.0905 17.5,48C 14.5,47.6667 11.5,47.3333 8.5,47C 7.06919,46.5348 5.90252,45.7014 5,44.5C 3.39619,32.5714 3.06286,20.5714 4,8.5C 4.56375,6.11327 5.73042,4.11327 7.5,2.5 Z M 10.5,4.5 C 11.7479,5.3339 12.4146,6.66723 12.5,8.5C 11.4448,13.1152 9.44481,13.1152 6.5,8.5C 7.54868,6.78445 8.88201,5.45111 10.5,4.5 Z M 6.5,13.5 C 20.7588,14.3164 35.0922,14.8164 49.5,15C 52.3193,15.0677 54.486,16.2344 56,18.5C 56.6667,27.8333 56.6667,37.1667 56,46.5C 53.595,45.7256 51.095,45.2256 48.5,45C 51.1189,43.1435 51.9523,40.6435 51,37.5C 48.9592,36.5769 46.7925,36.2436 44.5,36.5C 44.846,33.3979 44.1793,30.5645 42.5,28C 46.211,27.8253 49.8776,27.3253 53.5,26.5C 49.2044,25.6725 44.8711,25.1725 40.5,25C 31.463,19.6809 24.2964,21.5143 19,30.5C 18.5045,32.4727 18.3379,34.4727 18.5,36.5C 16.2075,36.2436 14.0408,36.5769 12,37.5C 11.0477,40.6435 11.8811,43.1435 14.5,45C 11.9162,45.0818 9.58284,44.2485 7.5,42.5C 6.52575,32.8865 6.19241,23.2199 6.5,13.5 Z M 30.5,24.5 C 31.7479,25.3339 32.4146,26.6672 32.5,28.5C 32.1667,29.8333 31.8333,31.1667 31.5,32.5C 30.52,29.9135 30.1866,27.2469 30.5,24.5 Z M 26.5,25.5 C 27.166,28.3583 27.8326,31.3583 28.5,34.5C 30.5,35.8333 32.5,35.8333 34.5,34.5C 35.3214,31.5535 35.8214,28.5535 36,25.5C 39.9769,28.1204 41.8102,31.7871 41.5,36.5C 34.8333,36.5 28.1667,36.5 21.5,36.5C 21.2771,31.9476 22.9437,28.2809 26.5,25.5 Z M 14.5,39.5 C 25.8529,39.1678 37.1862,39.5012 48.5,40.5C 42.8333,40.8333 37.1667,41.1667 31.5,41.5C 25.4585,41.4955 19.7918,40.8288 14.5,39.5 Z M 17.5,45.5 C 19.0348,44.2121 20.7015,44.2121 22.5,45.5C 25.3332,52.0853 29.9998,53.9186 36.5,51C 38.4136,49.5867 39.7469,47.7534 40.5,45.5C 42.0745,44.3691 43.7412,44.2025 45.5,45C 44.552,45.4828 43.552,45.6495 42.5,45.5C 41.5504,48.0679 41.5504,50.5679 42.5,53C 41.9747,53.6924 41.3081,54.1924 40.5,54.5C 36.3733,53.1033 33.3733,54.4366 31.5,58.5C 29.6267,54.4366 26.6267,53.1033 22.5,54.5C 21.6919,54.1924 21.0253,53.6924 20.5,53C 21.4496,50.5679 21.4496,48.0679 20.5,45.5C 19.5,45.5 18.5,45.5 17.5,45.5 Z M 25.5,44.5 C 29.5546,44.1758 33.5546,44.5091 37.5,45.5C 35.5263,49.1699 32.5263,50.3366 28.5,49C 26.8588,47.871 25.8588,46.371 25.5,44.5 Z M 50.5,47.5 C 57.8584,49.5118 58.1917,52.1784 51.5,55.5C 50.52,52.9135 50.1866,50.2469 50.5,47.5 Z"/></g>
<g><path style="opacity:0.547" fill="#000000" d="M 15.5,15.5 C 16.5,15.5 17.5,15.5 18.5,15.5C 18.0135,18.8273 16.1802,21.1606 13,22.5C 11.3783,22.0459 10.2116,21.0459 9.5,19.5C 10.6507,18.269 11.8173,18.269 13,19.5C 14.0946,18.3066 14.928,16.9733 15.5,15.5 Z"/></g>
<g><path style="opacity:0.573" fill="#000000" d="M 20.5,17.5 C 31.5,17.5 42.5,17.5 53.5,17.5C 53.5,18.5 53.5,19.5 53.5,20.5C 42.495,20.6665 31.495,20.4998 20.5,20C 19.4019,19.2303 19.4019,18.397 20.5,17.5 Z"/></g>
<g><path style="opacity:0.547" fill="#000000" d="M 16.5,22.5 C 18.2252,22.8425 18.7252,23.8425 18,25.5C 16.3149,27.0175 14.8149,28.6841 13.5,30.5C 11.8333,29.5 10.5,28.1667 9.5,26.5C 12.6447,27.0984 14.978,25.7651 16.5,22.5 Z"/></g>
</svg>
